<?xml version="1.0" encoding="utf-8"?>
<svg version="1.1" style="height: 502px;" viewBox="0 0 550 470" xmlns="http://www.w3.org/2000/svg">
  <g fill="none" fill-rule="none" stroke="none" stroke-width="1" stroke-linecap="butt" stroke-linejoin="miter" stroke-miterlimit="10" stroke-dasharray="" stroke-dashoffset="0" font-family="none" font-weight="none" font-size="none" text-anchor="none" style="mix-blend-mode: normal">
    <g data-paper-data="{&quot;isGlobalGroup&quot;:true,&quot;bounds&quot;:{&quot;x&quot;:115.34477247091286,&quot;y&quot;:115,&quot;width&quot;:319.3104550581743,&quot;height&quot;:240}}">
      <g data-paper-data="{&quot;isSecondaryText&quot;:true}" fill="#1ba7f0" fill-rule="nonzero" id="element-id-76584">
        <path d="M124.60809,353.54038v-6.20562h4.19081v1.17307h-2.79387v1.21784h2.48046v1.1462h-2.48046v1.49544h2.99983v1.17307z" data-paper-data="{&quot;glyphName&quot;:&quot;E&quot;,&quot;glyphIndex&quot;:0,&quot;firstGlyphOfWord&quot;:true,&quot;word&quot;:1}" id="element-id-29759"/>
        <path d="M133.54788,347.33477c0.10746,0.197 0.23133,0.44027 0.37162,0.72981c0.14029,0.28954 0.28655,0.60295 0.43878,0.94024c0.15223,0.33729 0.30297,0.68205 0.45221,1.03427c0.14925,0.35222 0.28954,0.68354 0.42087,0.99397c0.13134,-0.31043 0.27163,-0.64175 0.42087,-0.99397c0.14925,-0.35222 0.29998,-0.69698 0.45221,-1.03427c0.15223,-0.33729 0.29849,-0.65071 0.43878,-0.94024c0.14029,-0.28954 0.26416,-0.53281 0.37162,-0.72981h1.27157c0.0597,0.41192 0.11492,0.87308 0.16566,1.3835c0.05074,0.51042 0.09552,1.04173 0.13432,1.59394c0.0388,0.55221 0.07462,1.10591 0.10746,1.6611c0.03283,0.55519 0.06119,1.07755 0.08507,1.56707h-1.36112c-0.01791,-0.60295 -0.04179,-1.25963 -0.07164,-1.97004c-0.02985,-0.71041 -0.07462,-1.42678 -0.13432,-2.14913c-0.10746,0.25073 -0.22685,0.52833 -0.35819,0.83279c-0.13134,0.30446 -0.26118,0.60892 -0.38953,0.91338c-0.12835,0.30446 -0.25222,0.59549 -0.37162,0.87308c-0.1194,0.2776 -0.22088,0.5149 -0.30446,0.7119h-0.97606c-0.08358,-0.197 -0.18506,-0.4343 -0.30446,-0.7119c-0.1194,-0.2776 -0.24327,-0.56862 -0.37162,-0.87308c-0.12835,-0.30446 -0.25819,-0.60892 -0.38953,-0.91338c-0.13134,-0.30446 -0.25073,-0.58206 -0.35819,-0.83279c-0.0597,0.72235 -0.10447,1.43872 -0.13432,2.14913c-0.02985,0.71041 -0.05373,1.36709 -0.07164,1.97004h-1.36112c0.02388,-0.48952 0.05224,-1.01188 0.08507,-1.56707c0.03283,-0.55519 0.06865,-1.10889 0.10746,-1.6611c0.0388,-0.55221 0.08358,-1.08352 0.13432,-1.59394c0.05074,-0.51042 0.10596,-0.97159 0.16566,-1.3835z" data-paper-data="{&quot;glyphName&quot;:&quot;M&quot;,&quot;glyphIndex&quot;:1,&quot;word&quot;:1}" id="element-id-19114"/>
        <path d="M143.66073,347.26313c0.92532,0 1.63573,0.16268 2.13122,0.48803c0.49549,0.32535 0.74324,0.85816 0.74324,1.59842c0,0.74623 -0.25073,1.285 -0.7522,1.61633c-0.50146,0.33132 -1.21784,0.49699 -2.14913,0.49699h-0.43878v2.07749h-1.39694v-6.11607c0.30446,-0.0597 0.62683,-0.10149 0.96711,-0.12537c0.34028,-0.02388 0.63877,-0.03582 0.89547,-0.03582zM143.75028,348.4541c-0.10149,0 -0.20148,0.00298 -0.29998,0.00895c-0.0985,0.00597 -0.18357,0.01194 -0.25521,0.01791v1.79094h0.43878c0.48355,0 0.84771,-0.06567 1.09248,-0.197c0.24476,-0.13134 0.36714,-0.3761 0.36714,-0.73429c0,-0.17312 -0.03134,-0.3164 -0.09402,-0.42983c-0.06268,-0.11343 -0.15223,-0.20447 -0.26864,-0.27312c-0.11641,-0.06865 -0.25819,-0.11641 -0.42535,-0.14328c-0.16715,-0.02686 -0.35222,-0.0403 -0.55519,-0.0403z" data-paper-data="{&quot;glyphName&quot;:&quot;P&quot;,&quot;glyphIndex&quot;:2,&quot;word&quot;:1}" id="element-id-90880"/>
        <path d="M150.60362,350.4331c0,0.30446 0.03731,0.57907 0.11193,0.82383c0.07462,0.24476 0.18208,0.4552 0.32237,0.63131c0.14029,0.17611 0.31192,0.31192 0.5149,0.40744c0.20297,0.09552 0.4358,0.14328 0.69847,0.14328c0.2567,0 0.48803,-0.04776 0.69399,-0.14328c0.20596,-0.09552 0.37908,-0.23133 0.51937,-0.40744c0.14029,-0.17611 0.24775,-0.38655 0.32237,-0.63131c0.07462,-0.24476 0.11193,-0.51937 0.11193,-0.82383c0,-0.30446 -0.03731,-0.58056 -0.11193,-0.82831c-0.07462,-0.24775 -0.18208,-0.45968 -0.32237,-0.63578c-0.14029,-0.17611 -0.31341,-0.31192 -0.51937,-0.40744c-0.20596,-0.09552 -0.43729,-0.14328 -0.69399,-0.14328c-0.26267,0 -0.49549,0.04925 -0.69847,0.14775c-0.20297,0.0985 -0.37461,0.23581 -0.5149,0.41192c-0.14029,0.17611 -0.24775,0.38804 -0.32237,0.63578c-0.07462,0.24775 -0.11193,0.52087 -0.11193,0.81936zM155.34066,350.4331c0,0.53131 -0.0791,0.99845 -0.2373,1.40141c-0.1582,0.40296 -0.37461,0.74026 -0.64922,1.01188c-0.27461,0.27163 -0.60146,0.47609 -0.98054,0.6134c-0.37908,0.13731 -0.78652,0.20596 -1.22232,0.20596c-0.42386,0 -0.82383,-0.06865 -1.19993,-0.20596c-0.3761,-0.13731 -0.70444,-0.34177 -0.98502,-0.6134c-0.28058,-0.27163 -0.50146,-0.60892 -0.66265,-1.01188c-0.16118,-0.40296 -0.24178,-0.8701 -0.24178,-1.40141c0,-0.53131 0.08358,-0.99845 0.25073,-1.40141c0.16715,-0.40296 0.39251,-0.74175 0.67608,-1.01636c0.28357,-0.27461 0.61191,-0.48057 0.98502,-0.61788c0.37311,-0.13731 0.76563,-0.20596 1.17754,-0.20596c0.42386,0 0.82383,0.06865 1.19993,0.20596c0.3761,0.13731 0.70444,0.34326 0.98502,0.61788c0.28058,0.27461 0.50146,0.6134 0.66265,1.01636c0.16118,0.40296 0.24178,0.8701 0.24178,1.40141z" data-paper-data="{&quot;glyphName&quot;:&quot;O&quot;,&quot;glyphIndex&quot;:3,&quot;word&quot;:1}" id="element-id-12202"/>
        <path d="M162.53428,347.99741c0.07164,0.24476 0.15074,0.52087 0.2373,0.82831c0.08656,0.30745 0.17909,0.62534 0.2776,0.95368c0.0985,0.32834 0.1985,0.65668 0.29998,0.98502c0.10149,0.32834 0.19999,0.6328 0.29551,0.91338c0.07761,-0.30446 0.15671,-0.63578 0.2373,-0.99397c0.08059,-0.35819 0.15671,-0.72832 0.22835,-1.11038c0.07164,-0.38207 0.14178,-0.76264 0.21044,-1.14173c0.06865,-0.37908 0.13283,-0.74473 0.19253,-1.09695h1.45066c-0.20894,1.03875 -0.44923,2.09242 -0.72085,3.16101c-0.27163,1.0686 -0.56564,2.08346 -0.88204,3.0446h-1.28052c-0.20894,-0.5731 -0.41192,-1.17456 -0.60892,-1.80437c-0.197,-0.62981 -0.39102,-1.26112 -0.58206,-1.89392c-0.19103,0.6328 -0.38207,1.26411 -0.5731,1.89392c-0.19103,0.62981 -0.39102,1.23127 -0.59997,1.80437h-1.28052c-0.3164,-0.96114 -0.61041,-1.97601 -0.88204,-3.0446c-0.27163,-1.0686 -0.51191,-2.12227 -0.72085,-3.16101h1.51335c0.0597,0.35222 0.12537,0.71787 0.197,1.09695c0.07164,0.37908 0.14626,0.75966 0.22387,1.14173c0.07761,0.38207 0.15671,0.7522 0.2373,1.11038c0.08059,0.35819 0.16268,0.68951 0.24625,0.99397c0.10746,-0.29252 0.21193,-0.60295 0.31341,-0.93129c0.10149,-0.32834 0.19999,-0.65668 0.29551,-0.98502c0.09552,-0.32834 0.18357,-0.64474 0.26416,-0.9492c0.08059,-0.30446 0.15372,-0.57609 0.21939,-0.81488z" data-paper-data="{&quot;glyphName&quot;:&quot;W&quot;,&quot;glyphIndex&quot;:4,&quot;word&quot;:1}" id="element-id-29222"/>
        <path d="M168.72497,353.54038v-6.20562h4.19081v1.17307h-2.79387v1.21784h2.48046v1.1462h-2.48046v1.49544h2.99983v1.17307z" data-paper-data="{&quot;glyphName&quot;:&quot;E&quot;,&quot;glyphIndex&quot;:5,&quot;word&quot;:1}" id="element-id-10046"/>
        <path d="M177.8349,347.26313c0.93129,0 1.64468,0.16566 2.14018,0.49699c0.49549,0.33132 0.74324,0.84622 0.74324,1.54469c0,0.4358 -0.09999,0.78951 -0.29998,1.06113c-0.19999,0.27163 -0.48803,0.48505 -0.86413,0.64026c0.12537,0.15522 0.2567,0.33282 0.39401,0.53281c0.13731,0.19999 0.27312,0.40893 0.40744,0.62683c0.13432,0.2179 0.26416,0.44475 0.38953,0.68056c0.12537,0.23581 0.24178,0.46714 0.34923,0.69399h-1.56707c-0.11343,-0.20297 -0.22835,-0.40893 -0.34476,-0.61788c-0.11641,-0.20894 -0.23581,-0.41192 -0.35819,-0.60892c-0.12238,-0.197 -0.24327,-0.38356 -0.36267,-0.55967c-0.1194,-0.17611 -0.23879,-0.3358 -0.35819,-0.47908h-0.68951v2.26554h-1.39694v-6.11607c0.30446,-0.0597 0.61937,-0.10149 0.94472,-0.12537c0.32535,-0.02388 0.61638,-0.03582 0.87308,-0.03582zM177.9155,348.4541c-0.10149,0 -0.19253,0.00298 -0.27312,0.00895c-0.08059,0.00597 -0.15671,0.01194 -0.22835,0.01791v1.68349h0.39401c0.52534,0 0.90144,-0.06567 1.12829,-0.197c0.22685,-0.13134 0.34028,-0.3552 0.34028,-0.6716c0,-0.30446 -0.11492,-0.52087 -0.34476,-0.64922c-0.22984,-0.12835 -0.56862,-0.19253 -1.01636,-0.19253z" data-paper-data="{&quot;glyphName&quot;:&quot;R&quot;,&quot;glyphIndex&quot;:6,&quot;word&quot;:1}" id="element-id-38465"/>
        <path d="M183.85545,347.33477h1.39694v6.20562h-1.39694z" data-paper-data="{&quot;glyphName&quot;:&quot;I&quot;,&quot;glyphIndex&quot;:7,&quot;word&quot;:1}" id="element-id-11969"/>
        <path d="M192.71465,353.54038c-0.39998,-0.71041 -0.83279,-1.41186 -1.29843,-2.10436c-0.46565,-0.6925 -0.96114,-1.34619 -1.48648,-1.96108v4.06544h-1.37903v-6.20562h1.13725c0.197,0.197 0.4149,0.43878 0.65369,0.72533c0.23879,0.28655 0.48206,0.5925 0.72981,0.91786c0.24775,0.32535 0.494,0.66265 0.73876,1.01188c0.24476,0.34923 0.4746,0.68504 0.68951,1.00741v-3.66248h1.38798v6.20562z" data-paper-data="{&quot;glyphName&quot;:&quot;N&quot;,&quot;glyphIndex&quot;:8,&quot;word&quot;:1}" id="element-id-85966"/>
        <path d="M200.21273,348.40933c-0.65071,0 -1.12083,0.18059 -1.41037,0.54176c-0.28954,0.36117 -0.4343,0.85518 -0.4343,1.48201c0,0.30446 0.03582,0.58056 0.10746,0.82831c0.07164,0.24775 0.17909,0.46117 0.32237,0.64026c0.14328,0.17909 0.32237,0.31789 0.53728,0.41639c0.21491,0.0985 0.46565,0.14775 0.7522,0.14775c0.15522,0 0.28804,-0.00298 0.39848,-0.00895c0.11044,-0.00597 0.20745,-0.01791 0.29103,-0.03582v-2.15809h1.39694v3.07147c-0.16715,0.06567 -0.4358,0.13581 -0.80592,0.21044c-0.37013,0.07462 -0.82682,0.11193 -1.37007,0.11193c-0.46565,0 -0.88801,-0.07164 -1.26709,-0.21491c-0.37908,-0.14328 -0.70294,-0.35222 -0.97159,-0.62683c-0.26864,-0.27461 -0.47609,-0.61191 -0.62235,-1.01188c-0.14626,-0.39998 -0.21939,-0.85667 -0.21939,-1.37007c0,-0.51937 0.08059,-0.97905 0.24178,-1.37903c0.16118,-0.39998 0.38207,-0.73876 0.66265,-1.01636c0.28058,-0.2776 0.61041,-0.48803 0.9895,-0.63131c0.37908,-0.14328 0.78354,-0.21491 1.21336,-0.21491c0.29252,0 0.55668,0.0194 0.79249,0.05821c0.23581,0.0388 0.43878,0.08358 0.60892,0.13432c0.17014,0.05074 0.31043,0.10298 0.42087,0.15671c0.11044,0.05373 0.18954,0.09552 0.2373,0.12537l-0.40296,1.11934c-0.19103,-0.10149 -0.41042,-0.18954 -0.65817,-0.26416c-0.24775,-0.07462 -0.51788,-0.11193 -0.8104,-0.11193z" data-paper-data="{&quot;glyphName&quot;:&quot;G&quot;,&quot;glyphIndex&quot;:9,&quot;lastGlyphOfWord&quot;:true,&quot;word&quot;:1}" id="element-id-8395"/>
        <path d="M212.1822,353.66575c-1.0089,0 -1.77751,-0.28058 -2.30584,-0.84174c-0.52833,-0.56116 -0.79249,-1.35813 -0.79249,-2.39091c0,-0.5134 0.08059,-0.97159 0.24178,-1.37455c0.16118,-0.40296 0.38207,-0.74324 0.66265,-1.02084c0.28058,-0.2776 0.61489,-0.48803 1.00293,-0.63131c0.38804,-0.14328 0.80891,-0.21491 1.26261,-0.21491c0.26267,0 0.50146,0.0194 0.71638,0.05821c0.21491,0.0388 0.40296,0.08358 0.56415,0.13432c0.16118,0.05074 0.29551,0.10298 0.40296,0.15671c0.10746,0.05373 0.18506,0.09552 0.23282,0.12537l-0.40296,1.12829c-0.19103,-0.10149 -0.41341,-0.18805 -0.66713,-0.25969c-0.25372,-0.07164 -0.54176,-0.10746 -0.86413,-0.10746c-0.21491,0 -0.42535,0.03582 -0.63131,0.10746c-0.20596,0.07164 -0.38804,0.18656 -0.54624,0.34476c-0.1582,0.1582 -0.28506,0.36267 -0.38058,0.6134c-0.09552,0.25073 -0.14328,0.55519 -0.14328,0.91338c0,0.28655 0.03134,0.5537 0.09402,0.80145c0.06268,0.24775 0.16417,0.46117 0.30446,0.64026c0.14029,0.17909 0.32386,0.32088 0.55071,0.42535c0.22685,0.10447 0.50146,0.15671 0.82383,0.15671c0.20297,0 0.38505,-0.01194 0.54624,-0.03582c0.16118,-0.02388 0.30446,-0.05224 0.42983,-0.08507c0.12537,-0.03283 0.23581,-0.07015 0.33132,-0.11193c0.09552,-0.04179 0.18208,-0.08059 0.25969,-0.11641l0.38505,1.11934c-0.197,0.1194 -0.4746,0.22685 -0.83279,0.32237c-0.35819,0.09552 -0.77309,0.14328 -1.24471,0.14328z" data-paper-data="{&quot;glyphName&quot;:&quot;C&quot;,&quot;glyphIndex&quot;:10,&quot;firstGlyphOfWord&quot;:true,&quot;word&quot;:2}" id="element-id-41979"/>
        <path d="M218.19379,350.4331c0,0.30446 0.03731,0.57907 0.11193,0.82383c0.07462,0.24476 0.18208,0.4552 0.32237,0.63131c0.14029,0.17611 0.31192,0.31192 0.5149,0.40744c0.20297,0.09552 0.4358,0.14328 0.69847,0.14328c0.2567,0 0.48803,-0.04776 0.69399,-0.14328c0.20596,-0.09552 0.37908,-0.23133 0.51937,-0.40744c0.14029,-0.17611 0.24775,-0.38655 0.32237,-0.63131c0.07462,-0.24476 0.11193,-0.51937 0.11193,-0.82383c0,-0.30446 -0.03731,-0.58056 -0.11193,-0.82831c-0.07462,-0.24775 -0.18208,-0.45968 -0.32237,-0.63578c-0.14029,-0.17611 -0.31341,-0.31192 -0.51937,-0.40744c-0.20596,-0.09552 -0.43729,-0.14328 -0.69399,-0.14328c-0.26267,0 -0.49549,0.04925 -0.69847,0.14775c-0.20297,0.0985 -0.37461,0.23581 -0.5149,0.41192c-0.14029,0.17611 -0.24775,0.38804 -0.32237,0.63578c-0.07462,0.24775 -0.11193,0.52087 -0.11193,0.81936zM222.93084,350.4331c0,0.53131 -0.0791,0.99845 -0.2373,1.40141c-0.1582,0.40296 -0.37461,0.74026 -0.64922,1.01188c-0.27461,0.27163 -0.60146,0.47609 -0.98054,0.6134c-0.37908,0.13731 -0.78652,0.20596 -1.22232,0.20596c-0.42386,0 -0.82383,-0.06865 -1.19993,-0.20596c-0.3761,-0.13731 -0.70444,-0.34177 -0.98502,-0.6134c-0.28058,-0.27163 -0.50146,-0.60892 -0.66265,-1.01188c-0.16118,-0.40296 -0.24178,-0.8701 -0.24178,-1.40141c0,-0.53131 0.08358,-0.99845 0.25073,-1.40141c0.16715,-0.40296 0.39251,-0.74175 0.67608,-1.01636c0.28357,-0.27461 0.61191,-0.48057 0.98502,-0.61788c0.37311,-0.13731 0.76563,-0.20596 1.17754,-0.20596c0.42386,0 0.82383,0.06865 1.19993,0.20596c0.3761,0.13731 0.70444,0.34326 0.98502,0.61788c0.28058,0.27461 0.50146,0.6134 0.66265,1.01636c0.16118,0.40296 0.24178,0.8701 0.24178,1.40141z" data-paper-data="{&quot;glyphName&quot;:&quot;O&quot;,&quot;glyphIndex&quot;:11,&quot;word&quot;:2}" id="element-id-86871"/>
        <path d="M230.12446,353.54038c-0.39998,-0.71041 -0.83279,-1.41186 -1.29843,-2.10436c-0.46565,-0.6925 -0.96114,-1.34619 -1.48648,-1.96108v4.06544h-1.37903v-6.20562h1.13725c0.197,0.197 0.4149,0.43878 0.65369,0.72533c0.23879,0.28655 0.48206,0.5925 0.72981,0.91786c0.24775,0.32535 0.494,0.66265 0.73876,1.01188c0.24476,0.34923 0.4746,0.68504 0.68951,1.00741v-3.66248h1.38798v6.20562z" data-paper-data="{&quot;glyphName&quot;:&quot;N&quot;,&quot;glyphIndex&quot;:12,&quot;word&quot;:2}" id="element-id-4109"/>
        <path d="M238.75979,353.54038c-0.39998,-0.71041 -0.83279,-1.41186 -1.29843,-2.10436c-0.46565,-0.6925 -0.96114,-1.34619 -1.48648,-1.96108v4.06544h-1.37903v-6.20562h1.13725c0.197,0.197 0.4149,0.43878 0.65369,0.72533c0.23879,0.28655 0.48206,0.5925 0.72981,0.91786c0.24775,0.32535 0.494,0.66265 0.73876,1.01188c0.24476,0.34923 0.4746,0.68504 0.68951,1.00741v-3.66248h1.38798v6.20562z" data-paper-data="{&quot;glyphName&quot;:&quot;N&quot;,&quot;glyphIndex&quot;:13,&quot;word&quot;:2}" id="element-id-50331"/>
        <path d="M243.23117,353.54038v-6.20562h4.19081v1.17307h-2.79387v1.21784h2.48046v1.1462h-2.48046v1.49544h2.99983v1.17307z" data-paper-data="{&quot;glyphName&quot;:&quot;E&quot;,&quot;glyphIndex&quot;:14,&quot;word&quot;:2}" id="element-id-81956"/>
        <path d="M253.35298,353.66575c-1.0089,0 -1.77751,-0.28058 -2.30584,-0.84174c-0.52833,-0.56116 -0.79249,-1.35813 -0.79249,-2.39091c0,-0.5134 0.08059,-0.97159 0.24178,-1.37455c0.16118,-0.40296 0.38207,-0.74324 0.66265,-1.02084c0.28058,-0.2776 0.61489,-0.48803 1.00293,-0.63131c0.38804,-0.14328 0.80891,-0.21491 1.26261,-0.21491c0.26267,0 0.50146,0.0194 0.71638,0.05821c0.21491,0.0388 0.40296,0.08358 0.56415,0.13432c0.16118,0.05074 0.29551,0.10298 0.40296,0.15671c0.10746,0.05373 0.18506,0.09552 0.23282,0.12537l-0.40296,1.12829c-0.19103,-0.10149 -0.41341,-0.18805 -0.66713,-0.25969c-0.25372,-0.07164 -0.54176,-0.10746 -0.86413,-0.10746c-0.21491,0 -0.42535,0.03582 -0.63131,0.10746c-0.20596,0.07164 -0.38804,0.18656 -0.54624,0.34476c-0.1582,0.1582 -0.28506,0.36267 -0.38058,0.6134c-0.09552,0.25073 -0.14328,0.55519 -0.14328,0.91338c0,0.28655 0.03134,0.5537 0.09402,0.80145c0.06268,0.24775 0.16417,0.46117 0.30446,0.64026c0.14029,0.17909 0.32386,0.32088 0.55071,0.42535c0.22685,0.10447 0.50146,0.15671 0.82383,0.15671c0.20297,0 0.38505,-0.01194 0.54624,-0.03582c0.16118,-0.02388 0.30446,-0.05224 0.42983,-0.08507c0.12537,-0.03283 0.23581,-0.07015 0.33132,-0.11193c0.09552,-0.04179 0.18208,-0.08059 0.25969,-0.11641l0.38505,1.11934c-0.197,0.1194 -0.4746,0.22685 -0.83279,0.32237c-0.35819,0.09552 -0.77309,0.14328 -1.24471,0.14328z" data-paper-data="{&quot;glyphName&quot;:&quot;C&quot;,&quot;glyphIndex&quot;:15,&quot;word&quot;:2}" id="element-id-16930"/>
        <path d="M262.79424,347.33477v1.19098h-1.87154v5.01464h-1.39694v-5.01464h-1.87154v-1.19098z" data-paper-data="{&quot;glyphName&quot;:&quot;T&quot;,&quot;glyphIndex&quot;:16,&quot;word&quot;:2}" id="element-id-36739"/>
        <path d="M265.55527,347.33477h1.39694v6.20562h-1.39694z" data-paper-data="{&quot;glyphName&quot;:&quot;I&quot;,&quot;glyphIndex&quot;:17,&quot;word&quot;:2}" id="element-id-18483"/>
        <path d="M271.42359,350.4331c0,0.30446 0.03731,0.57907 0.11193,0.82383c0.07462,0.24476 0.18208,0.4552 0.32237,0.63131c0.14029,0.17611 0.31192,0.31192 0.5149,0.40744c0.20297,0.09552 0.4358,0.14328 0.69847,0.14328c0.2567,0 0.48803,-0.04776 0.69399,-0.14328c0.20596,-0.09552 0.37908,-0.23133 0.51937,-0.40744c0.14029,-0.17611 0.24775,-0.38655 0.32237,-0.63131c0.07462,-0.24476 0.11193,-0.51937 0.11193,-0.82383c0,-0.30446 -0.03731,-0.58056 -0.11193,-0.82831c-0.07462,-0.24775 -0.18208,-0.45968 -0.32237,-0.63578c-0.14029,-0.17611 -0.31341,-0.31192 -0.51937,-0.40744c-0.20596,-0.09552 -0.43729,-0.14328 -0.69399,-0.14328c-0.26267,0 -0.49549,0.04925 -0.69847,0.14775c-0.20297,0.0985 -0.37461,0.23581 -0.5149,0.41192c-0.14029,0.17611 -0.24775,0.38804 -0.32237,0.63578c-0.07462,0.24775 -0.11193,0.52087 -0.11193,0.81936zM276.16064,350.4331c0,0.53131 -0.0791,0.99845 -0.2373,1.40141c-0.1582,0.40296 -0.37461,0.74026 -0.64922,1.01188c-0.27461,0.27163 -0.60146,0.47609 -0.98054,0.6134c-0.37908,0.13731 -0.78652,0.20596 -1.22232,0.20596c-0.42386,0 -0.82383,-0.06865 -1.19993,-0.20596c-0.3761,-0.13731 -0.70444,-0.34177 -0.98502,-0.6134c-0.28058,-0.27163 -0.50146,-0.60892 -0.66265,-1.01188c-0.16118,-0.40296 -0.24178,-0.8701 -0.24178,-1.40141c0,-0.53131 0.08358,-0.99845 0.25073,-1.40141c0.16715,-0.40296 0.39251,-0.74175 0.67608,-1.01636c0.28357,-0.27461 0.61191,-0.48057 0.98502,-0.61788c0.37311,-0.13731 0.76563,-0.20596 1.17754,-0.20596c0.42386,0 0.82383,0.06865 1.19993,0.20596c0.3761,0.13731 0.70444,0.34326 0.98502,0.61788c0.28058,0.27461 0.50146,0.6134 0.66265,1.01636c0.16118,0.40296 0.24178,0.8701 0.24178,1.40141z" data-paper-data="{&quot;glyphName&quot;:&quot;O&quot;,&quot;glyphIndex&quot;:18,&quot;word&quot;:2}" id="element-id-41073"/>
        <path d="M283.35426,353.54038c-0.39998,-0.71041 -0.83279,-1.41186 -1.29843,-2.10436c-0.46565,-0.6925 -0.96114,-1.34619 -1.48648,-1.96108v4.06544h-1.37903v-6.20562h1.13725c0.197,0.197 0.4149,0.43878 0.65369,0.72533c0.23879,0.28655 0.48206,0.5925 0.72981,0.91786c0.24775,0.32535 0.494,0.66265 0.73876,1.01188c0.24476,0.34923 0.4746,0.68504 0.68951,1.00741v-3.66248h1.38798v6.20562z" data-paper-data="{&quot;glyphName&quot;:&quot;N&quot;,&quot;glyphIndex&quot;:19,&quot;word&quot;:2}" id="element-id-85844"/>
        <path d="M289.51808,352.47477c0.197,0 0.35968,-0.01642 0.48803,-0.04925c0.12835,-0.03283 0.23133,-0.07761 0.30894,-0.13432c0.07761,-0.05671 0.13134,-0.12387 0.16118,-0.20148c0.02985,-0.07761 0.04477,-0.16417 0.04477,-0.25969c0,-0.20297 -0.09552,-0.37162 -0.28655,-0.50594c-0.19103,-0.13432 -0.51937,-0.27909 -0.98502,-0.4343c-0.20297,-0.07164 -0.40595,-0.15372 -0.60892,-0.24625c-0.20297,-0.09253 -0.38505,-0.20894 -0.54624,-0.34923c-0.16118,-0.14029 -0.29252,-0.31043 -0.39401,-0.51042c-0.10149,-0.19999 -0.15223,-0.44326 -0.15223,-0.72981c0,-0.28655 0.05373,-0.54475 0.16118,-0.77458c0.10746,-0.22984 0.25969,-0.42535 0.45669,-0.58653c0.197,-0.16118 0.4358,-0.28506 0.71638,-0.37162c0.28058,-0.08656 0.59698,-0.12984 0.9492,-0.12984c0.41789,0 0.77906,0.04477 1.08352,0.13432c0.30446,0.08955 0.55519,0.18805 0.7522,0.29551l-0.40296,1.10143c-0.17312,-0.08955 -0.36565,-0.16865 -0.57758,-0.2373c-0.21193,-0.06865 -0.46714,-0.10298 -0.76563,-0.10298c-0.33431,0 -0.57459,0.04627 -0.72085,0.1388c-0.14626,0.09253 -0.21939,0.23431 -0.21939,0.42535c0,0.11343 0.02686,0.20894 0.08059,0.28655c0.05373,0.07761 0.12984,0.14775 0.22835,0.21044c0.0985,0.06268 0.21193,0.1194 0.34028,0.17014c0.12835,0.05074 0.27013,0.10298 0.42535,0.15671c0.32237,0.1194 0.60295,0.2373 0.84174,0.35371c0.23879,0.11641 0.43729,0.25222 0.59549,0.40744c0.1582,0.15522 0.2761,0.33729 0.35371,0.54624c0.07761,0.20894 0.11641,0.46266 0.11641,0.76115c0,0.57907 -0.20297,1.0283 -0.60892,1.34768c-0.40595,0.31938 -1.01785,0.47908 -1.83572,0.47908c-0.27461,0 -0.52236,-0.01642 -0.74324,-0.04925c-0.22088,-0.03283 -0.41639,-0.07313 -0.58653,-0.12089c-0.17014,-0.04776 -0.3164,-0.0985 -0.43878,-0.15223c-0.12238,-0.05373 -0.22536,-0.10447 -0.30894,-0.15223l0.39401,-1.11038c0.18506,0.10149 0.41341,0.19253 0.68504,0.27312c0.27163,0.08059 0.60444,0.12089 0.99845,0.12089z" data-paper-data="{&quot;glyphName&quot;:&quot;S&quot;,&quot;glyphIndex&quot;:20,&quot;word&quot;:2}" id="element-id-27658"/>
        <path d="M296.07592,352.17927c0.01194,0.14328 0.0194,0.24476 0.02239,0.30446c0.00298,0.0597 0.00448,0.11044 0.00448,0.15223c0,0.17909 -0.01642,0.36864 -0.04925,0.56862c-0.03283,0.19999 -0.0791,0.40147 -0.1388,0.60444c-0.0597,0.20297 -0.13432,0.40595 -0.22387,0.60892c-0.08955,0.20297 -0.19103,0.39699 -0.30446,0.58206l-1.0477,-0.25969c0.13731,-0.39401 0.23282,-0.76414 0.28655,-1.11038c0.05373,-0.34625 0.08059,-0.6328 0.08059,-0.85965c0,-0.03582 -0.00149,-0.08208 -0.00448,-0.1388c-0.00298,-0.05671 -0.00597,-0.11492 -0.00895,-0.17462c-0.00298,-0.0597 -0.00597,-0.11641 -0.00895,-0.17014c-0.00298,-0.05373 -0.00448,-0.08955 -0.00448,-0.10746z" data-paper-data="{&quot;glyphName&quot;:&quot;,&quot;,&quot;glyphIndex&quot;:21,&quot;lastGlyphOfWord&quot;:true,&quot;word&quot;:2}" id="element-id-88508"/>
        <path d="M302.98597,353.54038v-6.20562h4.19081v1.17307h-2.79387v1.21784h2.48046v1.1462h-2.48046v1.49544h2.99983v1.17307z" data-paper-data="{&quot;glyphName&quot;:&quot;E&quot;,&quot;glyphIndex&quot;:22,&quot;firstGlyphOfWord&quot;:true,&quot;word&quot;:3}" id="element-id-60419"/>
        <path d="M314.42413,352.34045v1.19993h-4.14603v-6.20562h1.39694v5.00568z" data-paper-data="{&quot;glyphName&quot;:&quot;L&quot;,&quot;glyphIndex&quot;:23,&quot;word&quot;:3}" id="element-id-55690"/>
        <path d="M317.18516,353.54038v-6.20562h4.19081v1.17307h-2.79387v1.21784h2.48046v1.1462h-2.48046v1.49544h2.99983v1.17307z" data-paper-data="{&quot;glyphName&quot;:&quot;E&quot;,&quot;glyphIndex&quot;:24,&quot;word&quot;:3}" id="element-id-74345"/>
        <path d="M326.32196,353.54038c-0.24476,-0.51937 -0.48654,-1.05964 -0.72533,-1.6208c-0.23879,-0.56116 -0.46565,-1.11635 -0.68056,-1.66558c-0.21491,-0.54922 -0.41341,-1.07457 -0.59549,-1.57603c-0.18208,-0.50146 -0.33879,-0.9492 -0.47012,-1.34321h1.54021c0.1194,0.35819 0.24924,0.74473 0.38953,1.15964c0.14029,0.4149 0.28357,0.82831 0.42983,1.24023c0.14626,0.41192 0.28804,0.80592 0.42535,1.18202c0.13731,0.3761 0.26566,0.70145 0.38505,0.97606c0.11343,-0.27461 0.24028,-0.59997 0.38058,-0.97606c0.14029,-0.3761 0.28357,-0.77011 0.42983,-1.18202c0.14626,-0.41192 0.28954,-0.82533 0.42983,-1.24023c0.14029,-0.4149 0.27013,-0.80145 0.38953,-1.15964h1.48648c-0.13731,0.39401 -0.29551,0.84174 -0.4746,1.34321c-0.17909,0.50146 -0.3761,1.02681 -0.59101,1.57603c-0.21491,0.54922 -0.44177,1.10441 -0.68056,1.66558c-0.23879,0.56116 -0.48057,1.10143 -0.72533,1.6208z" data-paper-data="{&quot;glyphName&quot;:&quot;V&quot;,&quot;glyphIndex&quot;:25,&quot;word&quot;:3}" id="element-id-70674"/>
        <path d="M336.96314,353.54038c-0.06567,-0.21491 -0.1388,-0.4358 -0.21939,-0.66265c-0.08059,-0.22685 -0.15969,-0.45371 -0.2373,-0.68056h-2.41777c-0.07761,0.22685 -0.15671,0.45371 -0.2373,0.68056c-0.08059,0.22685 -0.15372,0.44774 -0.21939,0.66265h-1.45066c0.23282,-0.66862 0.45371,-1.28649 0.66265,-1.85363c0.20894,-0.56713 0.41341,-1.10143 0.6134,-1.60289c0.19999,-0.50146 0.39699,-0.97756 0.59101,-1.42828c0.19402,-0.45072 0.3955,-0.89099 0.60444,-1.32082h1.33425c0.20297,0.42983 0.40296,0.8701 0.59997,1.32082c0.197,0.45072 0.3955,0.92681 0.59549,1.42828c0.19999,0.50146 0.40445,1.03576 0.6134,1.60289c0.20894,0.56713 0.42983,1.18501 0.66265,1.85363zM335.28861,348.74066c-0.02985,0.08955 -0.07462,0.21193 -0.13432,0.36714c-0.0597,0.15522 -0.12835,0.33431 -0.20596,0.53728c-0.07761,0.20297 -0.16268,0.42684 -0.25521,0.6716c-0.09253,0.24476 -0.18656,0.50146 -0.28207,0.77011h1.76408c-0.09552,-0.26864 -0.18805,-0.52534 -0.2776,-0.77011c-0.08955,-0.24476 -0.17462,-0.46863 -0.25521,-0.6716c-0.08059,-0.20297 -0.15074,-0.38207 -0.21044,-0.53728c-0.0597,-0.15522 -0.10746,-0.2776 -0.14328,-0.36714z" data-paper-data="{&quot;glyphName&quot;:&quot;A&quot;,&quot;glyphIndex&quot;:26,&quot;word&quot;:3}" id="element-id-72148"/>
        <path d="M345.73279,347.33477v1.19098h-1.87154v5.01464h-1.39694v-5.01464h-1.87154v-1.19098z" data-paper-data="{&quot;glyphName&quot;:&quot;T&quot;,&quot;glyphIndex&quot;:27,&quot;word&quot;:3}" id="element-id-78039"/>
        <path d="M348.49383,347.33477h1.39694v6.20562h-1.39694z" data-paper-data="{&quot;glyphName&quot;:&quot;I&quot;,&quot;glyphIndex&quot;:28,&quot;word&quot;:3}" id="element-id-95973"/>
        <path d="M357.35302,353.54038c-0.39998,-0.71041 -0.83279,-1.41186 -1.29843,-2.10436c-0.46565,-0.6925 -0.96114,-1.34619 -1.48648,-1.96108v4.06544h-1.37903v-6.20562h1.13725c0.197,0.197 0.4149,0.43878 0.65369,0.72533c0.23879,0.28655 0.48206,0.5925 0.72981,0.91786c0.24775,0.32535 0.494,0.66265 0.73876,1.01188c0.24476,0.34923 0.4746,0.68504 0.68951,1.00741v-3.66248h1.38798v6.20562z" data-paper-data="{&quot;glyphName&quot;:&quot;N&quot;,&quot;glyphIndex&quot;:29,&quot;word&quot;:3}" id="element-id-33623"/>
        <path d="M364.8511,348.40933c-0.65071,0 -1.12083,0.18059 -1.41037,0.54176c-0.28954,0.36117 -0.4343,0.85518 -0.4343,1.48201c0,0.30446 0.03582,0.58056 0.10746,0.82831c0.07164,0.24775 0.17909,0.46117 0.32237,0.64026c0.14328,0.17909 0.32237,0.31789 0.53728,0.41639c0.21491,0.0985 0.46565,0.14775 0.7522,0.14775c0.15522,0 0.28804,-0.00298 0.39848,-0.00895c0.11044,-0.00597 0.20745,-0.01791 0.29103,-0.03582v-2.15809h1.39694v3.07147c-0.16715,0.06567 -0.4358,0.13581 -0.80592,0.21044c-0.37013,0.07462 -0.82682,0.11193 -1.37007,0.11193c-0.46565,0 -0.88801,-0.07164 -1.26709,-0.21491c-0.37908,-0.14328 -0.70294,-0.35222 -0.97159,-0.62683c-0.26864,-0.27461 -0.47609,-0.61191 -0.62235,-1.01188c-0.14626,-0.39998 -0.21939,-0.85667 -0.21939,-1.37007c0,-0.51937 0.08059,-0.97905 0.24178,-1.37903c0.16118,-0.39998 0.38207,-0.73876 0.66265,-1.01636c0.28058,-0.2776 0.61041,-0.48803 0.9895,-0.63131c0.37908,-0.14328 0.78354,-0.21491 1.21336,-0.21491c0.29252,0 0.55668,0.0194 0.79249,0.05821c0.23581,0.0388 0.43878,0.08358 0.60892,0.13432c0.17014,0.05074 0.31043,0.10298 0.42087,0.15671c0.11044,0.05373 0.18954,0.09552 0.2373,0.12537l-0.40296,1.11934c-0.19103,-0.10149 -0.41042,-0.18954 -0.65817,-0.26416c-0.24775,-0.07462 -0.51788,-0.11193 -0.8104,-0.11193z" data-paper-data="{&quot;glyphName&quot;:&quot;G&quot;,&quot;glyphIndex&quot;:30,&quot;lastGlyphOfWord&quot;:true,&quot;word&quot;:3}" id="element-id-65604"/>
        <path d="M376.82057,353.66575c-1.0089,0 -1.77751,-0.28058 -2.30584,-0.84174c-0.52833,-0.56116 -0.79249,-1.35813 -0.79249,-2.39091c0,-0.5134 0.08059,-0.97159 0.24178,-1.37455c0.16118,-0.40296 0.38207,-0.74324 0.66265,-1.02084c0.28058,-0.2776 0.61489,-0.48803 1.00293,-0.63131c0.38804,-0.14328 0.80891,-0.21491 1.26261,-0.21491c0.26267,0 0.50146,0.0194 0.71638,0.05821c0.21491,0.0388 0.40296,0.08358 0.56415,0.13432c0.16118,0.05074 0.29551,0.10298 0.40296,0.15671c0.10746,0.05373 0.18506,0.09552 0.23282,0.12537l-0.40296,1.12829c-0.19103,-0.10149 -0.41341,-0.18805 -0.66713,-0.25969c-0.25372,-0.07164 -0.54176,-0.10746 -0.86413,-0.10746c-0.21491,0 -0.42535,0.03582 -0.63131,0.10746c-0.20596,0.07164 -0.38804,0.18656 -0.54624,0.34476c-0.1582,0.1582 -0.28506,0.36267 -0.38058,0.6134c-0.09552,0.25073 -0.14328,0.55519 -0.14328,0.91338c0,0.28655 0.03134,0.5537 0.09402,0.80145c0.06268,0.24775 0.16417,0.46117 0.30446,0.64026c0.14029,0.17909 0.32386,0.32088 0.55071,0.42535c0.22685,0.10447 0.50146,0.15671 0.82383,0.15671c0.20297,0 0.38505,-0.01194 0.54624,-0.03582c0.16118,-0.02388 0.30446,-0.05224 0.42983,-0.08507c0.12537,-0.03283 0.23581,-0.07015 0.33132,-0.11193c0.09552,-0.04179 0.18208,-0.08059 0.25969,-0.11641l0.38505,1.11934c-0.197,0.1194 -0.4746,0.22685 -0.83279,0.32237c-0.35819,0.09552 -0.77309,0.14328 -1.24471,0.14328z" data-paper-data="{&quot;glyphName&quot;:&quot;C&quot;,&quot;glyphIndex&quot;:31,&quot;firstGlyphOfWord&quot;:true,&quot;word&quot;:4}" id="element-id-16815"/>
        <path d="M385.81408,353.54038c-0.06567,-0.21491 -0.1388,-0.4358 -0.21939,-0.66265c-0.08059,-0.22685 -0.15969,-0.45371 -0.2373,-0.68056h-2.41777c-0.07761,0.22685 -0.15671,0.45371 -0.2373,0.68056c-0.08059,0.22685 -0.15372,0.44774 -0.21939,0.66265h-1.45066c0.23282,-0.66862 0.45371,-1.28649 0.66265,-1.85363c0.20894,-0.56713 0.41341,-1.10143 0.6134,-1.60289c0.19999,-0.50146 0.39699,-0.97756 0.59101,-1.42828c0.19402,-0.45072 0.3955,-0.89099 0.60444,-1.32082h1.33425c0.20297,0.42983 0.40296,0.8701 0.59997,1.32082c0.197,0.45072 0.3955,0.92681 0.59549,1.42828c0.19999,0.50146 0.40445,1.03576 0.6134,1.60289c0.20894,0.56713 0.42983,1.18501 0.66265,1.85363zM384.13955,348.74066c-0.02985,0.08955 -0.07462,0.21193 -0.13432,0.36714c-0.0597,0.15522 -0.12835,0.33431 -0.20596,0.53728c-0.07761,0.20297 -0.16268,0.42684 -0.25521,0.6716c-0.09253,0.24476 -0.18656,0.50146 -0.28207,0.77011h1.76408c-0.09552,-0.26864 -0.18805,-0.52534 -0.2776,-0.77011c-0.08955,-0.24476 -0.17462,-0.46863 -0.25521,-0.6716c-0.08059,-0.20297 -0.15074,-0.38207 -0.21044,-0.53728c-0.0597,-0.15522 -0.10746,-0.2776 -0.14328,-0.36714z" data-paper-data="{&quot;glyphName&quot;:&quot;A&quot;,&quot;glyphIndex&quot;:32,&quot;word&quot;:4}" id="element-id-32681"/>
        <path d="M391.79882,347.26313c0.93129,0 1.64468,0.16566 2.14018,0.49699c0.49549,0.33132 0.74324,0.84622 0.74324,1.54469c0,0.4358 -0.09999,0.78951 -0.29998,1.06113c-0.19999,0.27163 -0.48803,0.48505 -0.86413,0.64026c0.12537,0.15522 0.2567,0.33282 0.39401,0.53281c0.13731,0.19999 0.27312,0.40893 0.40744,0.62683c0.13432,0.2179 0.26416,0.44475 0.38953,0.68056c0.12537,0.23581 0.24178,0.46714 0.34923,0.69399h-1.56707c-0.11343,-0.20297 -0.22835,-0.40893 -0.34476,-0.61788c-0.11641,-0.20894 -0.23581,-0.41192 -0.35819,-0.60892c-0.12238,-0.197 -0.24327,-0.38356 -0.36267,-0.55967c-0.1194,-0.17611 -0.23879,-0.3358 -0.35819,-0.47908h-0.68951v2.26554h-1.39694v-6.11607c0.30446,-0.0597 0.61937,-0.10149 0.94472,-0.12537c0.32535,-0.02388 0.61638,-0.03582 0.87308,-0.03582zM391.87941,348.4541c-0.10149,0 -0.19253,0.00298 -0.27312,0.00895c-0.08059,0.00597 -0.15671,0.01194 -0.22835,0.01791v1.68349h0.39401c0.52534,0 0.90144,-0.06567 1.12829,-0.197c0.22685,-0.13134 0.34028,-0.3552 0.34028,-0.6716c0,-0.30446 -0.11492,-0.52087 -0.34476,-0.64922c-0.22984,-0.12835 -0.56862,-0.19253 -1.01636,-0.19253z" data-paper-data="{&quot;glyphName&quot;:&quot;R&quot;,&quot;glyphIndex&quot;:33,&quot;word&quot;:4}" id="element-id-44543"/>
        <path d="M397.81937,353.54038v-6.20562h4.19081v1.17307h-2.79387v1.21784h2.48046v1.1462h-2.48046v1.49544h2.99983v1.17307z" data-paper-data="{&quot;glyphName&quot;:&quot;E&quot;,&quot;glyphIndex&quot;:34,&quot;word&quot;:4}" id="element-id-77065"/>
        <path d="M405.11149,353.54038v-6.20562h4.19081v1.17307h-2.79387v1.21784h2.48046v1.1462h-2.48046v1.49544h2.99983v1.17307z" data-paper-data="{&quot;glyphName&quot;:&quot;E&quot;,&quot;glyphIndex&quot;:35,&quot;word&quot;:4}" id="element-id-42285"/>
        <path d="M414.22142,347.26313c0.93129,0 1.64468,0.16566 2.14018,0.49699c0.49549,0.33132 0.74324,0.84622 0.74324,1.54469c0,0.4358 -0.09999,0.78951 -0.29998,1.06113c-0.19999,0.27163 -0.48803,0.48505 -0.86413,0.64026c0.12537,0.15522 0.2567,0.33282 0.39401,0.53281c0.13731,0.19999 0.27312,0.40893 0.40744,0.62683c0.13432,0.2179 0.26416,0.44475 0.38953,0.68056c0.12537,0.23581 0.24178,0.46714 0.34923,0.69399h-1.56707c-0.11343,-0.20297 -0.22835,-0.40893 -0.34476,-0.61788c-0.11641,-0.20894 -0.23581,-0.41192 -0.35819,-0.60892c-0.12238,-0.197 -0.24327,-0.38356 -0.36267,-0.55967c-0.1194,-0.17611 -0.23879,-0.3358 -0.35819,-0.47908h-0.68951v2.26554h-1.39694v-6.11607c0.30446,-0.0597 0.61937,-0.10149 0.94472,-0.12537c0.32535,-0.02388 0.61638,-0.03582 0.87308,-0.03582zM414.30201,348.4541c-0.10149,0 -0.19253,0.00298 -0.27312,0.00895c-0.08059,0.00597 -0.15671,0.01194 -0.22835,0.01791v1.68349h0.39401c0.52534,0 0.90144,-0.06567 1.12829,-0.197c0.22685,-0.13134 0.34028,-0.3552 0.34028,-0.6716c0,-0.30446 -0.11492,-0.52087 -0.34476,-0.64922c-0.22984,-0.12835 -0.56862,-0.19253 -1.01636,-0.19253z" data-paper-data="{&quot;glyphName&quot;:&quot;R&quot;,&quot;glyphIndex&quot;:36,&quot;word&quot;:4}" id="element-id-57667"/>
        <path d="M421.93441,352.47477c0.197,0 0.35968,-0.01642 0.48803,-0.04925c0.12835,-0.03283 0.23133,-0.07761 0.30894,-0.13432c0.07761,-0.05671 0.13134,-0.12387 0.16118,-0.20148c0.02985,-0.07761 0.04477,-0.16417 0.04477,-0.25969c0,-0.20297 -0.09552,-0.37162 -0.28655,-0.50594c-0.19103,-0.13432 -0.51937,-0.27909 -0.98502,-0.4343c-0.20297,-0.07164 -0.40595,-0.15372 -0.60892,-0.24625c-0.20297,-0.09253 -0.38505,-0.20894 -0.54624,-0.34923c-0.16118,-0.14029 -0.29252,-0.31043 -0.39401,-0.51042c-0.10149,-0.19999 -0.15223,-0.44326 -0.15223,-0.72981c0,-0.28655 0.05373,-0.54475 0.16118,-0.77458c0.10746,-0.22984 0.25969,-0.42535 0.45669,-0.58653c0.197,-0.16118 0.4358,-0.28506 0.71638,-0.37162c0.28058,-0.08656 0.59698,-0.12984 0.9492,-0.12984c0.41789,0 0.77906,0.04477 1.08352,0.13432c0.30446,0.08955 0.55519,0.18805 0.7522,0.29551l-0.40296,1.10143c-0.17312,-0.08955 -0.36565,-0.16865 -0.57758,-0.2373c-0.21193,-0.06865 -0.46714,-0.10298 -0.76563,-0.10298c-0.33431,0 -0.57459,0.04627 -0.72085,0.1388c-0.14626,0.09253 -0.21939,0.23431 -0.21939,0.42535c0,0.11343 0.02686,0.20894 0.08059,0.28655c0.05373,0.07761 0.12984,0.14775 0.22835,0.21044c0.0985,0.06268 0.21193,0.1194 0.34028,0.17014c0.12835,0.05074 0.27013,0.10298 0.42535,0.15671c0.32237,0.1194 0.60295,0.2373 0.84174,0.35371c0.23879,0.11641 0.43729,0.25222 0.59549,0.40744c0.1582,0.15522 0.2761,0.33729 0.35371,0.54624c0.07761,0.20894 0.11641,0.46266 0.11641,0.76115c0,0.57907 -0.20297,1.0283 -0.60892,1.34768c-0.40595,0.31938 -1.01785,0.47908 -1.83572,0.47908c-0.27461,0 -0.52236,-0.01642 -0.74324,-0.04925c-0.22088,-0.03283 -0.41639,-0.07313 -0.58653,-0.12089c-0.17014,-0.04776 -0.3164,-0.0985 -0.43878,-0.15223c-0.12238,-0.05373 -0.22536,-0.10447 -0.30894,-0.15223l0.39401,-1.11038c0.18506,0.10149 0.41341,0.19253 0.68504,0.27312c0.27163,0.08059 0.60444,0.12089 0.99845,0.12089z" data-paper-data="{&quot;glyphName&quot;:&quot;S&quot;,&quot;glyphIndex&quot;:37,&quot;lastGlyphOfWord&quot;:true,&quot;word&quot;:4}" id="element-id-75082"/>
      </g>
      <g data-paper-data="{&quot;isPrimaryText&quot;:true}" fill="#4f46e5" fill-rule="nonzero" id="element-id-49116">
        <path d="M149.32582,318.79647c-1.16984,6.23914 -6.40626,10.75138 -12.64541,10.75138c-6.96333,0 -12.47829,-5.8492 -12.47829,-13.14677c0,-7.35328 5.51496,-13.25818 12.47829,-13.25818c4.28941,0 8.52312,2.17256 11.53127,6.62909l6.7405,-4.79077c-3.73234,-6.07202 -10.58426,-10.0829 -18.32748,-10.0829c-11.80981,0 -21.27994,9.63725 -21.27994,21.50276c0,11.86551 9.47013,21.44706 21.33564,21.44706c11.02991,0 20.1658,-8.4117 21.39135,-19.05167z" data-paper-data="{&quot;glyphName&quot;:&quot;C&quot;,&quot;glyphIndex&quot;:0,&quot;firstGlyphOfWord&quot;:true,&quot;word&quot;:1}" id="element-id-90302" style=""/>
        <path d="M189.32319,337.12395v-7.79893h-17.10194v-10.36143h15.59786v-7.79893h-15.59786v-7.74322h13.4253v-7.79893h-22.05983v41.50145z" data-paper-data="{&quot;glyphName&quot;:&quot;E&quot;,&quot;glyphIndex&quot;:1,&quot;word&quot;:1}" id="element-id-84133" style=""/>
        <path d="M208.48627,329.93779l6.79621,7.18616h11.47557l-8.96877,-9.58154c5.79349,-2.67392 9.35872,-8.13317 9.35872,-15.59786c0,-9.02448 -7.46469,-16.32205 -17.21335,-16.32205h-14.42802v41.50145h8.63453v-7.18616zM204.14116,322.13886v-18.71743h5.23642c6.01632,0 9.08018,4.12229 9.08018,9.1916c0,5.79349 -3.45381,9.52584 -9.58154,9.52584z" data-paper-data="{&quot;glyphName&quot;:&quot;R&quot;,&quot;glyphIndex&quot;:2,&quot;word&quot;:1}" id="element-id-59008" style=""/>
        <path d="M246.53391,337.12395v-33.70252h10.9185v-7.79893h-29.80305v7.79893h10.25002v33.70252z" data-paper-data="{&quot;glyphName&quot;:&quot;T&quot;,&quot;glyphIndex&quot;:3,&quot;word&quot;:1}" id="element-id-81589" style=""/>
        <path d="M271.10054,295.6225h-8.63453v41.50145h8.63453z" data-paper-data="{&quot;glyphName&quot;:&quot;I&quot;,&quot;glyphIndex&quot;:4,&quot;word&quot;:1}" id="element-id-571" style=""/>
        <path d="M287.64541,337.12395v-18.16036h15.59786v-7.79893h-15.59786v-7.74322h13.4253v-7.79893h-22.05983v41.50145z" data-paper-data="{&quot;glyphName&quot;:&quot;F&quot;,&quot;glyphIndex&quot;:5,&quot;word&quot;:1}" id="element-id-76839" style=""/>
        <path d="M325.24739,316.01113l-12.14405,-20.38863h-9.91578l17.6033,28.91175v12.5897h8.63453v-13.36959l16.99052,-28.13185h-9.08018z" data-paper-data="{&quot;glyphName&quot;:&quot;Y&quot;,&quot;glyphIndex&quot;:6,&quot;word&quot;:1}" id="element-id-68927" style=""/>
        <path d="M379.56136,319.63207l-29.52452,-24.78945v42.28134h8.63453v-23.84244l29.52452,24.56663v-42.22563h-8.63453z" data-paper-data="{&quot;glyphName&quot;:&quot;N&quot;,&quot;glyphIndex&quot;:7,&quot;word&quot;:1}" id="element-id-10868" style=""/>
        <path d="M396.10623,295.6225v41.50145h16.87911c11.92122,0 21.66988,-8.85736 21.66988,-20.77858c0,-11.80981 -9.74866,-20.72287 -21.72559,-20.72287zM404.74076,329.32502v-25.90359h8.18888c7.24186,0 12.86823,5.40354 12.86823,12.92394c0,7.46469 -5.62637,12.97965 -12.81253,12.97965z" data-paper-data="{&quot;glyphName&quot;:&quot;D&quot;,&quot;glyphIndex&quot;:8,&quot;lastGlyphOfWord&quot;:true,&quot;word&quot;:1}" id="element-id-18767" style=""/>
      </g>
      <g data-paper-data="{&quot;fillRule&quot;:&quot;nonzero&quot;,&quot;fillRuleOriginal&quot;:&quot;nonzero&quot;,&quot;isIcon&quot;:true,&quot;iconStyle&quot;:&quot;standalone&quot;,&quot;selectedEffects&quot;:{&quot;container&quot;:&quot;&quot;,&quot;transformation&quot;:&quot;&quot;,&quot;pattern&quot;:&quot;&quot;},&quot;bounds&quot;:{&quot;x&quot;:214.8160364987288,&quot;y&quot;:115,&quot;width&quot;:120.36792700254233,&quot;height&quot;:150.77490856214536},&quot;iconType&quot;:&quot;icon&quot;,&quot;rawIconId&quot;:&quot;646ff8b9-4c8c-4681-bab5-b97514db2771&quot;,&quot;isDetailed&quot;:false,&quot;suitableAsStandaloneIcon&quot;:true}" fill-rule="evenodd" id="element-id-80928">
        <g data-paper-data="{&quot;isPathIcon&quot;:true}" id="element-id-6325">
          <path d="M276.295,115c-1.766,0 -3.199,1.432 -3.199,3.199c0,1.767 1.433,3.199 3.199,3.199c1.767,0 3.199,-1.432 3.199,-3.199c0,-1.767 -1.432,-3.199 -3.199,-3.199zM262.76901,116.426c-2.399,0 -4.344,1.944 -4.344,4.343c0,2.399 1.945,4.344 4.344,4.344c2.399,0 4.344,-1.945 4.344,-4.344c0,-2.399 -1.945,-4.343 -4.344,-4.343zM286.42899,119.483c-3.567,0 -6.458,2.891 -6.458,6.457c0,3.567 2.891,6.458 6.458,6.458c3.566,0 6.457,-2.891 6.457,-6.458c0,-3.566 -2.891,-6.457 -6.457,-6.457zM246.55402,120.775c-1.673,0 -3.029,1.356 -3.029,3.028c0,1.673 1.356,3.029 3.029,3.029c1.672,0 3.028,-1.356 3.028,-3.029c0,-1.672 -1.356,-3.028 -3.028,-3.028zM255.88501,122.898c-1.585,0 -2.87,1.285 -2.87,2.87c0,1.585 1.285,2.87 2.87,2.87c1.585,0 2.87,-1.285 2.87,-2.87c0,-1.585 -1.285,-2.87 -2.87,-2.87zM250.20902,127.85799c-2.565,0 -4.644,2.079 -4.644,4.644c0,2.564 2.079,4.643 4.644,4.643c2.564,0 4.643,-2.079 4.643,-4.643c0,-2.565 -2.079,-4.644 -4.643,-4.644zM321.82697,129.28799c-1.632,0 -2.955,1.323 -2.955,2.956c0,1.632 1.323,2.956 2.955,2.956c1.633,0 2.956,-1.324 2.956,-2.956c0,-1.633 -1.323,-2.956 -2.956,-2.956zM238.47702,131.01199c-1.714,0 -3.104,1.39 -3.104,3.104c0,1.714 1.39,3.104 3.104,3.104c1.714,0 3.104,-1.39 3.104,-3.104c0,-1.714 -1.39,-3.104 -3.104,-3.104zM259.80901,132.49699c-2.377,0 -4.305,1.928 -4.305,4.305c0,2.378 1.928,4.305 4.305,4.305c2.378,0 4.305,-1.927 4.305,-4.305c0,-2.377 -1.927,-4.305 -4.305,-4.305zM230.68903,133.36299c-1.585,0 -2.87,1.285 -2.87,2.87c0,1.585 1.285,2.87 2.87,2.87c1.585,0 2.87,-1.285 2.87,-2.87c0,-1.585 -1.285,-2.87 -2.87,-2.87zM285.94999,133.68499c-3.608,0 -6.533,2.925 -6.533,6.533c0,3.609 2.925,6.534 6.533,6.534c3.609,0 6.534,-2.925 6.534,-6.534c0,-3.608 -2.925,-6.533 -6.534,-6.533zM236.92302,138.40399c-3.636,0 -6.584,2.948 -6.584,6.584c0,3.636 2.948,6.584 6.584,6.584c3.637,0 6.584,-2.948 6.584,-6.584c0,-3.636 -2.947,-6.584 -6.584,-6.584zM252.73401,140.14498c-3.655,0 -6.617,2.962 -6.617,6.617c0,3.655 2.962,6.617 6.617,6.617c3.655,0 6.618,-2.962 6.618,-6.617c0,-3.655 -2.963,-6.617 -6.618,-6.617zM272.42,140.63898c-2.377,0 -4.305,1.927 -4.305,4.305c0,2.378 1.928,4.305 4.305,4.305c2.378,0 4.305,-1.927 4.305,-4.305c0,-2.378 -1.927,-4.305 -4.305,-4.305zM224.58303,140.90398c-2.09,0 -3.784,1.694 -3.784,3.784c0,2.09 1.694,3.784 3.784,3.784c2.09,0 3.784,-1.694 3.784,-3.784c0,-2.09 -1.694,-3.784 -3.784,-3.784zM297.25699,143.41198c-3.594,0 -6.508,2.913 -6.508,6.508c0,3.594 2.914,6.508 6.508,6.508c3.594,0 6.508,-2.914 6.508,-6.508c0,-3.595 -2.914,-6.508 -6.508,-6.508zM264.22801,144.96098c-1.77,0 -3.204,1.434 -3.204,3.204c0,1.769 1.434,3.204 3.204,3.204c1.769,0 3.204,-1.435 3.204,-3.204c0,-1.77 -1.435,-3.204 -3.204,-3.204zM221.71203,150.39498c-2.786,0 -5.044,2.258 -5.044,5.044c0,2.786 2.258,5.044 5.044,5.044c2.785,0 5.044,-2.258 5.044,-5.044c0,-2.786 -2.259,-5.044 -5.044,-5.044zM331.94097,154.76998c-1.709,0 -3.095,1.386 -3.095,3.095c0,1.71 1.386,3.096 3.095,3.096c1.71,0 3.095,-1.386 3.095,-3.096c0,-1.709 -1.385,-3.095 -3.095,-3.095zM303.18998,155.92098c-1.585,0 -2.87,1.285 -2.87,2.87c0,1.585 1.285,2.87 2.87,2.87c1.585,0 2.87,-1.285 2.87,-2.87c0,-1.585 -1.285,-2.87 -2.87,-2.87zM248.79502,159.26097c-3.566,0 -6.458,2.891 -6.458,6.457c0,3.567 2.892,6.458 6.458,6.458c3.566,0 6.457,-2.891 6.457,-6.458c0,-3.566 -2.891,-6.457 -6.457,-6.457zM220.31803,161.68597c-2.377,0 -4.305,1.927 -4.305,4.305c0,2.377 1.928,4.305 4.305,4.305c2.378,0 4.305,-1.928 4.305,-4.305c0,-2.378 -1.927,-4.305 -4.305,-4.305zM307.17298,163.34897c-1.927,0 -3.49,1.562 -3.49,3.489c0,1.928 1.563,3.49 3.49,3.49c1.927,0 3.49,-1.562 3.49,-3.49c0,-1.927 -1.563,-3.489 -3.49,-3.489zM230.34303,173.16396c-1.585,0 -2.87,1.285 -2.87,2.87c0,1.585 1.285,2.87 2.87,2.87c1.585,0 2.87,-1.285 2.87,-2.87c0,-1.585 -1.285,-2.87 -2.87,-2.87zM248.58802,185.41396c-3.567,0 -6.458,2.891 -6.458,6.458c0,3.566 2.891,6.457 6.458,6.457c3.566,0 6.457,-2.891 6.457,-6.457c0,-3.566 -2.891,-6.458 -6.457,-6.458zM219.70203,193.37895c-2.699,0 -4.886,2.187 -4.886,4.885c0,2.698 2.187,4.886 4.886,4.886c2.698,0 4.885,-2.188 4.885,-4.886c0,-2.698 -2.187,-4.885 -4.885,-4.885zM250.91201,199.91695c-2.301,0 -4.166,1.865 -4.166,4.166c0,2.301 1.865,4.166 4.166,4.166c2.301,0 4.167,-1.865 4.167,-4.166c0,-2.301 -1.866,-4.166 -4.167,-4.166zM236.09502,204.66195c-3.681,0 -6.664,2.984 -6.664,6.664c0,3.681 2.983,6.664 6.664,6.664c3.68,0 6.664,-2.983 6.664,-6.664c0,-3.68 -2.984,-6.664 -6.664,-6.664zM223.74703,207.51194c-2.431,0 -4.403,1.971 -4.403,4.403c0,2.431 1.972,4.402 4.403,4.402c2.432,0 4.403,-1.971 4.403,-4.402c0,-2.432 -1.971,-4.403 -4.403,-4.403zM249.31702,210.61294c-3.566,0 -6.457,2.891 -6.457,6.457c0,3.567 2.891,6.458 6.457,6.458c3.567,0 6.458,-2.891 6.458,-6.458c0,-3.566 -2.891,-6.457 -6.458,-6.457zM221.37103,218.03894c-2.973,0 -5.383,2.41 -5.383,5.383c0,2.973 2.41,5.383 5.383,5.383c2.974,0 5.384,-2.41 5.384,-5.383c0,-2.973 -2.41,-5.383 -5.384,-5.383zM324.26097,219.26094c-1.585,0 -2.87,1.285 -2.87,2.87c0,1.585 1.285,2.87 2.87,2.87c1.585,0 2.87,-1.285 2.87,-2.87c0,-1.585 -1.285,-2.87 -2.87,-2.87zM317.05697,220.08494c-1.722,0 -3.119,1.397 -3.119,3.119c0,1.723 1.397,3.12 3.119,3.12c1.723,0 3.12,-1.397 3.12,-3.12c0,-1.722 -1.397,-3.119 -3.12,-3.119zM326.82997,225.99093c-3.566,0 -6.457,2.891 -6.457,6.458c0,3.566 2.891,6.457 6.457,6.457c3.566,0 6.457,-2.891 6.457,-6.457c0,-3.567 -2.891,-6.458 -6.457,-6.458zM273.144,230.58793c-2.049,0 -3.711,1.662 -3.711,3.711c0,2.05 1.662,3.712 3.711,3.712c2.05,0 3.712,-1.662 3.712,-3.712c0,-2.049 -1.662,-3.711 -3.712,-3.711zM224.72903,230.93493c-2.532,0 -4.584,2.053 -4.584,4.584c0,2.532 2.052,4.585 4.584,4.585c2.532,0 4.584,-2.053 4.584,-4.585c0,-2.531 -2.052,-4.584 -4.584,-4.584zM240.03102,234.29093c-3.679,0 -6.66,2.981 -6.66,6.659c0,3.678 2.981,6.66 6.66,6.66c3.678,0 6.659,-2.982 6.659,-6.66c0,-3.678 -2.981,-6.659 -6.659,-6.659zM265.86301,235.05193c-1.853,0 -3.355,1.502 -3.355,3.355c0,1.852 1.502,3.354 3.355,3.354c1.853,0 3.355,-1.502 3.355,-3.354c0,-1.853 -1.502,-3.355 -3.355,-3.355zM258.00201,239.84592c-1.992,0 -3.607,1.615 -3.607,3.607c0,1.992 1.615,3.606 3.607,3.606c1.992,0 3.606,-1.614 3.606,-3.606c0,-1.992 -1.614,-3.607 -3.606,-3.607zM322.00697,241.08992c-2.841,0 -5.144,2.303 -5.144,5.144c0,2.841 2.303,5.144 5.144,5.144c2.841,0 5.144,-2.303 5.144,-5.144c0,-2.841 -2.303,-5.144 -5.144,-5.144zM267.52,243.19392c-3.567,0 -6.458,2.891 -6.458,6.457c0,3.567 2.891,6.458 6.458,6.458c3.566,0 6.457,-2.891 6.457,-6.458c0,-3.566 -2.891,-6.457 -6.457,-6.457zM234.00802,247.08392c-1.613,0 -2.921,1.308 -2.921,2.921c0,1.613 1.308,2.92 2.921,2.92c1.613,0 2.92,-1.307 2.92,-2.92c0,-1.613 -1.307,-2.921 -2.92,-2.921zM289.44299,251.78492c-3.566,0 -6.457,2.891 -6.457,6.457c0,3.566 2.891,6.458 6.457,6.458c3.566,0 6.457,-2.892 6.457,-6.458c0,-3.566 -2.891,-6.457 -6.457,-6.457zM277.165,253.57492c-2.5,0 -4.526,2.027 -4.526,4.527c0,2.5 2.026,4.527 4.526,4.527c2.5,0 4.527,-2.027 4.527,-4.527c0,-2.5 -2.027,-4.527 -4.527,-4.527zM264.02101,257.13091c-2.388,0 -4.323,1.935 -4.323,4.322c0,2.387 1.935,4.322 4.323,4.322c2.387,0 4.322,-1.935 4.322,-4.322c0,-2.387 -1.935,-4.322 -4.322,-4.322z" id="element-id-54723" style="fill: rgb(27, 167, 240);"/>
          <path d="M293.66999,129.81299c0,-3.955 3.205,-7.16 7.16,-7.16c3.954,0 7.16,3.205 7.16,7.16c0,3.954 -3.206,7.16 -7.16,7.16c-3.955,0 -7.16,-3.206 -7.16,-7.16zM265.29201,132.50099c0,-3.782 3.066,-6.848 6.847,-6.848c3.782,0 6.847,3.066 6.847,6.848c0,3.781 -3.065,6.847 -6.847,6.847c-3.781,0 -6.847,-3.066 -6.847,-6.847zM304.53998,141.22898c0,-4.224 3.424,-7.648 7.648,-7.648c4.223,0 7.648,3.424 7.648,7.648c0,4.224 -3.425,7.648 -7.648,7.648c-4.224,0 -7.648,-3.424 -7.648,-7.648zM321.23897,147.13298c0,-3.851 3.122,-6.972 6.972,-6.972c3.851,0 6.973,3.121 6.973,6.972c0,3.851 -3.122,6.973 -6.973,6.973c-3.85,0 -6.972,-3.122 -6.972,-6.973zM307.67398,157.37197c0,-4.124 3.343,-7.467 7.466,-7.467c4.124,0 7.467,3.343 7.467,7.467c0,4.123 -3.343,7.466 -7.467,7.466c-4.123,0 -7.466,-3.343 -7.466,-7.466zM228.12903,160.53097c0,-3.828 3.103,-6.93 6.93,-6.93c3.828,0 6.93,3.102 6.93,6.93c0,3.827 -3.102,6.929 -6.93,6.929c-3.827,0 -6.93,-3.102 -6.93,-6.929zM234.46702,178.98296c0,-3.856 3.125,-6.982 6.981,-6.982c3.856,0 6.982,3.126 6.982,6.982c0,3.855 -3.126,6.981 -6.982,6.981c-3.856,0 -6.981,-3.126 -6.981,-6.981zM215.41904,184.04596c0,-3.9 3.161,-7.061 7.061,-7.061c3.9,0 7.061,3.161 7.061,7.061c0,3.899 -3.161,7.061 -7.061,7.061c-3.9,0 -7.061,-3.162 -7.061,-7.061zM225.68803,195.95095c0,-4.23 3.429,-7.659 7.659,-7.659c4.23,0 7.659,3.429 7.659,7.659c0,4.23 -3.429,7.659 -7.659,7.659c-4.23,0 -7.659,-3.429 -7.659,-7.659zM298.22299,220.69294c0,-3.872 3.139,-7.011 7.011,-7.011c3.872,0 7.011,3.139 7.011,7.011c0,3.872 -3.139,7.011 -7.011,7.011c-3.872,0 -7.011,-3.139 -7.011,-7.011zM228.11403,226.50093c0,-3.995 3.239,-7.234 7.234,-7.234c3.995,0 7.234,3.239 7.234,7.234c0,3.995 -3.239,7.234 -7.234,7.234c-3.995,0 -7.234,-3.239 -7.234,-7.234zM247.29302,231.19393c0,-4.052 3.285,-7.337 7.337,-7.337c4.052,0 7.336,3.285 7.336,7.337c0,4.051 -3.284,7.336 -7.336,7.336c-4.052,0 -7.337,-3.285 -7.337,-7.336zM287.64899,236.11793c0,-4.391 3.56,-7.951 7.951,-7.951c4.391,0 7.951,3.56 7.951,7.951c0,4.392 -3.56,7.951 -7.951,7.951c-4.391,0 -7.951,-3.559 -7.951,-7.951zM305.47598,235.20493c0,-3.828 3.103,-6.931 6.931,-6.931c3.828,0 6.931,3.103 6.931,6.931c0,3.828 -3.103,6.931 -6.931,6.931c-3.828,0 -6.931,-3.103 -6.931,-6.931zM274.027,243.69892c0,-3.919 3.177,-7.096 7.095,-7.096c3.919,0 7.096,3.177 7.096,7.096c0,3.918 -3.177,7.095 -7.096,7.095c-3.918,0 -7.095,-3.177 -7.095,-7.095zM296.87499,253.12992c0,-4.785 3.879,-8.66399 8.66399,-8.66399c4.785,0 8.66399,3.879 8.66399,8.66399c0,4.785 -3.879,8.66399 -8.66399,8.66399c-4.785,0 -8.66399,-3.879 -8.66399,-8.66399zM243.90802,254.78192c0,-4.297 3.483,-7.78 7.779,-7.78c4.297,0 7.78,3.483 7.78,7.78c0,4.296 -3.483,7.779 -7.78,7.779c-4.296,0 -7.779,-3.483 -7.779,-7.779z" id="element-id-81015" style="fill: rgb(79, 70, 229);"/>
        </g>
      </g>
    </g>
  </g>
  <rect data-element-id="element-id-80928" stroke-width="2" fill="transparent" class="invisible-element-box grouping-element" x="215" y="115" width="120" height="151" data-element-name="isIcon"/>
  <rect data-element-id="element-id-6325" stroke-width="2" fill="transparent" class="invisible-element-box individual-element" x="215" y="115" width="120" height="151"/>
  <rect data-element-id="element-id-54723" stroke-width="2" fill="transparent" class="invisible-element-box individual-element" x="215" y="115" width="120" height="151"/>
  <rect data-element-id="element-id-81015" stroke-width="2" fill="transparent" class="invisible-element-box individual-element" x="215" y="123" width="120" height="140"/>
  <rect data-element-id="element-id-49116" stroke-width="2" fill="transparent" class="invisible-element-box grouping-element" x="115" y="295" width="319" height="43" data-element-name="isPrimaryText"/>
  <rect data-element-id="element-id-76584" stroke-width="2" fill="transparent" class="invisible-element-box grouping-element" x="125" y="347" width="300" height="8" data-element-name="isSecondaryText"/>
  <rect data-element-id="element-id-90302" stroke-width="2" fill="transparent" class="invisible-element-box individual-element" x="115" y="295" width="43" height="43"/>
  <rect data-element-id="element-id-68927" stroke-width="2" fill="transparent" class="invisible-element-box individual-element" x="303" y="296" width="43" height="42"/>
  <rect data-element-id="element-id-18767" stroke-width="2" fill="transparent" class="invisible-element-box individual-element" x="396" y="296" width="39" height="42"/>
  <rect data-element-id="element-id-10868" stroke-width="2" fill="transparent" class="invisible-element-box individual-element" x="350" y="295" width="38" height="43"/>
  <rect data-element-id="element-id-59008" stroke-width="2" fill="transparent" class="invisible-element-box individual-element" x="196" y="296" width="32" height="42"/>
  <rect data-element-id="element-id-81589" stroke-width="2" fill="transparent" class="invisible-element-box individual-element" x="228" y="296" width="30" height="42"/>
  <rect data-element-id="element-id-84133" stroke-width="2" fill="transparent" class="invisible-element-box individual-element" x="164" y="296" width="26" height="42"/>
  <rect data-element-id="element-id-76839" stroke-width="2" fill="transparent" class="invisible-element-box individual-element" x="279" y="296" width="24" height="42"/>
  <rect data-element-id="element-id-571" stroke-width="2" fill="transparent" class="invisible-element-box individual-element" x="262" y="296" width="9" height="42"/>
  <rect data-element-id="element-id-29222" stroke-width="2" fill="transparent" class="invisible-element-box individual-element" x="158" y="347" width="8" height="6"/>
  <rect data-element-id="element-id-19114" stroke-width="2" fill="transparent" class="invisible-element-box individual-element" x="132" y="347" width="7" height="6"/>
  <rect data-element-id="element-id-12202" stroke-width="2" fill="transparent" class="invisible-element-box individual-element" x="149" y="347" width="6" height="6"/>
  <rect data-element-id="element-id-86871" stroke-width="2" fill="transparent" class="invisible-element-box individual-element" x="217" y="347" width="6" height="6"/>
  <rect data-element-id="element-id-41073" stroke-width="2" fill="transparent" class="invisible-element-box individual-element" x="270" y="347" width="6" height="6"/>
  <rect data-element-id="element-id-70674" stroke-width="2" fill="transparent" class="invisible-element-box individual-element" x="324" y="347" width="6" height="6"/>
  <rect data-element-id="element-id-72148" stroke-width="2" fill="transparent" class="invisible-element-box individual-element" x="332" y="347" width="6" height="6"/>
  <rect data-element-id="element-id-32681" stroke-width="2" fill="transparent" class="invisible-element-box individual-element" x="381" y="347" width="6" height="6"/>
  <rect data-element-id="element-id-90880" stroke-width="2" fill="transparent" class="invisible-element-box individual-element" x="142" y="347" width="5" height="6"/>
  <rect data-element-id="element-id-38465" stroke-width="2" fill="transparent" class="invisible-element-box individual-element" x="176" y="347" width="5" height="6"/>
  <rect data-element-id="element-id-85966" stroke-width="2" fill="transparent" class="invisible-element-box individual-element" x="189" y="347" width="5" height="6"/>
  <rect data-element-id="element-id-8395" stroke-width="2" fill="transparent" class="invisible-element-box individual-element" x="197" y="347" width="5" height="6"/>
  <rect data-element-id="element-id-41979" stroke-width="2" fill="transparent" class="invisible-element-box individual-element" x="209" y="347" width="5" height="6"/>
  <rect data-element-id="element-id-4109" stroke-width="2" fill="transparent" class="invisible-element-box individual-element" x="226" y="347" width="5" height="6"/>
  <rect data-element-id="element-id-50331" stroke-width="2" fill="transparent" class="invisible-element-box individual-element" x="235" y="347" width="5" height="6"/>
  <rect data-element-id="element-id-16930" stroke-width="2" fill="transparent" class="invisible-element-box individual-element" x="250" y="347" width="5" height="6"/>
  <rect data-element-id="element-id-36739" stroke-width="2" fill="transparent" class="invisible-element-box individual-element" x="258" y="347" width="5" height="6"/>
  <rect data-element-id="element-id-85844" stroke-width="2" fill="transparent" class="invisible-element-box individual-element" x="279" y="347" width="5" height="6"/>
  <rect data-element-id="element-id-27658" stroke-width="2" fill="transparent" class="invisible-element-box individual-element" x="287" y="347" width="5" height="6"/>
  <rect data-element-id="element-id-78039" stroke-width="2" fill="transparent" class="invisible-element-box individual-element" x="341" y="347" width="5" height="6"/>
  <rect data-element-id="element-id-33623" stroke-width="2" fill="transparent" class="invisible-element-box individual-element" x="353" y="347" width="5" height="6"/>
  <rect data-element-id="element-id-65604" stroke-width="2" fill="transparent" class="invisible-element-box individual-element" x="362" y="347" width="5" height="6"/>
  <rect data-element-id="element-id-16815" stroke-width="2" fill="transparent" class="invisible-element-box individual-element" x="374" y="347" width="5" height="6"/>
  <rect data-element-id="element-id-44543" stroke-width="2" fill="transparent" class="invisible-element-box individual-element" x="390" y="347" width="5" height="6"/>
  <rect data-element-id="element-id-57667" stroke-width="2" fill="transparent" class="invisible-element-box individual-element" x="412" y="347" width="5" height="6"/>
  <rect data-element-id="element-id-75082" stroke-width="2" fill="transparent" class="invisible-element-box individual-element" x="420" y="347" width="5" height="6"/>
  <rect data-element-id="element-id-29759" stroke-width="2" fill="transparent" class="invisible-element-box individual-element" x="125" y="347" width="4" height="6"/>
  <rect data-element-id="element-id-10046" stroke-width="2" fill="transparent" class="invisible-element-box individual-element" x="169" y="347" width="4" height="6"/>
  <rect data-element-id="element-id-81956" stroke-width="2" fill="transparent" class="invisible-element-box individual-element" x="243" y="347" width="4" height="6"/>
  <rect data-element-id="element-id-60419" stroke-width="2" fill="transparent" class="invisible-element-box individual-element" x="303" y="347" width="4" height="6"/>
  <rect data-element-id="element-id-55690" stroke-width="2" fill="transparent" class="invisible-element-box individual-element" x="310" y="347" width="4" height="6"/>
  <rect data-element-id="element-id-74345" stroke-width="2" fill="transparent" class="invisible-element-box individual-element" x="317" y="347" width="4" height="6"/>
  <rect data-element-id="element-id-77065" stroke-width="2" fill="transparent" class="invisible-element-box individual-element" x="398" y="347" width="4" height="6"/>
  <rect data-element-id="element-id-42285" stroke-width="2" fill="transparent" class="invisible-element-box individual-element" x="405" y="347" width="4" height="6"/>
  <rect data-element-id="element-id-11969" stroke-width="2" fill="transparent" class="invisible-element-box individual-element" x="184" y="347" width="1" height="6"/>
  <rect data-element-id="element-id-18483" stroke-width="2" fill="transparent" class="invisible-element-box individual-element" x="266" y="347" width="1" height="6"/>
  <rect data-element-id="element-id-88508" stroke-width="2" fill="transparent" class="invisible-element-box individual-element" x="294" y="352" width="2" height="3"/>
  <rect data-element-id="element-id-95973" stroke-width="2" fill="transparent" class="invisible-element-box individual-element" x="348" y="347" width="1" height="6"/>
</svg>